<?xml version="1.0" encoding="UTF-8"?>
<svg id="Layer_1" data-name="Layer 1" xmlns="http://www.w3.org/2000/svg" viewBox="0 0 193.41 194.72">
  <defs>
    <style>
      .cls-1 {
        fill: #1d8fbf;
      }

      .cls-1, .cls-2 {
        stroke-width: 0px;
      }

      .cls-2 {
        fill: #4b4c4e;
      }
    </style>
  </defs>
  <g>
    <path class="cls-1" d="M129.76,157.08l30.13,3.09c3.72.38,6.66-3.1,5.65-6.71l-9.22-33c-.52-1.85-1.99-3.27-3.85-3.73l-25.58-6.28c-3.62-.89-7.01,2.14-6.53,5.83l4.67,36.18c.32,2.44,2.27,4.35,4.72,4.6Z"/>
    <path class="cls-2" d="M100.47,103.02l-41.18-9.28c-3.32-.75-6.47,1.78-6.47,5.18v42.09c0,2.66,1.97,4.91,4.61,5.26l46.47,6.2c3.47.46,6.43-2.5,5.96-5.97l-5.29-39.01c-.3-2.2-1.93-3.98-4.09-4.46Z"/>
  </g>
  <g>
    <path class="cls-1" d="M96.11,53.9l-39.11-15.74c-2.97-1.2-6.21.99-6.21,4.2v29.82c0,2.02,1.34,3.8,3.29,4.35l41.95,11.92c3.09.88,6.08-1.65,5.73-4.84l-2.84-26c-.18-1.66-1.26-3.08-2.81-3.71Z"/>
    <path class="cls-2" d="M119.13,94.44l27.23,7.85c2.32.67,4.48-1.47,3.83-3.8l-6.78-24.25c-.26-.92-.93-1.68-1.82-2.03l-24.35-9.8c-2.21-.89-4.56.96-4.21,3.32l3.9,26.2c.18,1.2,1.04,2.18,2.2,2.51Z"/>
  </g>
  <path class="cls-2" d="M115.45,52.65l34.12,14.5c.83.35,1.46,1.07,1.69,1.95l8.27,30.82c.27,1,1.04,1.78,2.03,2.07l2.72.79c2.22.64,4.28-1.4,3.66-3.63l-10.48-37.37c-.24-.87-.87-1.58-1.7-1.93l-38.75-16.16c-2.19-.91-4.5,1-4.02,3.32l.73,3.53c.2.95.84,1.74,1.73,2.12Z"/>
  <path class="cls-1" d="M137.21,177.75l2.72,13.03c.4,1.89,2.05,3.26,3.99,3.29l45.3.65c2.76.04,4.79-2.59,4.04-5.25l-16.62-59.3c-.4-1.44-1.56-2.56-3.02-2.9l-.47-.11c-3.05-.73-5.77,2.06-4.95,5.09l9.9,36.93c.73,2.71-1.4,5.34-4.2,5.2l-32.44-1.6c-2.7-.13-4.8,2.32-4.25,4.97Z"/>
  <path class="cls-1" d="M15.43,3.63l-4.03,50.51c-.15,1.92,1.11,3.68,2.98,4.14l14.31,3.55c2.39.59,4.73-1.12,4.89-3.57l2.14-33.35c.17-2.71,2.98-4.44,5.48-3.38l41.9,17.81c2.52,1.07,5.33-.68,5.48-3.41l.15-2.69c.09-1.64-.84-3.16-2.34-3.82L20.97.34c-2.49-1.1-5.32.58-5.53,3.29Z"/>
  <path class="cls-2" d="M29.61,162.77l2.61-63.05c.09-2.15-1.35-4.06-3.43-4.58l-15.59-3.85c-2.7-.67-5.36,1.24-5.59,4.02L.02,187.17c-.22,2.61,1.82,4.85,4.44,4.89l96.79,1.39c2.7.04,4.83-2.28,4.56-4.97l-1.36-13.68c-.22-2.23-2.04-3.96-4.28-4.07l-66.28-3.27c-2.48-.12-4.4-2.22-4.29-4.7Z"/>
</svg>