<?xml version="1.0" encoding="UTF-8"?>
<svg xmlns="http://www.w3.org/2000/svg" viewBox="0 0 535.2 337.43">
  <defs>
    <style>
      .cls-1 {
        font-family: DraughtworkDemo, 'Draughtwork Demo';
        font-size: 208.17px;
      }

      .cls-1, .cls-2, .cls-3 {
        fill: #e9b244;
      }

      .cls-2 {
        stroke: #e6e7e8;
      }

      .cls-2, .cls-4 {
        stroke-miterlimit: 10;
      }

      .cls-4 {
        fill: #f1f2f2;
        stroke: #f1f2f2;
      }

      .cls-3 {
        stroke-width: 0px;
      }
    </style>
  </defs>
  <g id="Shape">
    <g>
      <path class="cls-4" d="M414.48,106.67l-41.18-9.28c-3.32-.75-6.47,1.78-6.47,5.18v42.09c0,2.66,1.97,4.91,4.61,5.26l46.47,6.2c3.47.46,6.43-2.5,5.96-5.97l-5.29-39.01c-.3-2.2-1.93-3.98-4.09-4.46Z"/>
      <path class="cls-4" d="M434.3,98.43l22.85,6.59c3.73,1.08,7.2-2.36,6.15-6.1l-5.62-20.13c-.41-1.49-1.5-2.69-2.93-3.27l-20.46-8.23c-3.56-1.43-7.33,1.54-6.76,5.33l3.24,21.78c.29,1.92,1.67,3.5,3.53,4.04Z"/>
      <path class="cls-4" d="M429.46,56.31l34.12,14.5c.83.35,1.46,1.07,1.69,1.95l8.27,30.82c.27,1,1.04,1.78,2.03,2.07l2.72.79c2.22.64,4.28-1.4,3.66-3.63l-10.48-37.37c-.24-.87-.87-1.58-1.7-1.93l-38.75-16.16c-2.19-.91-4.5,1-4.02,3.32l.73,3.53c.2.95.84,1.74,1.73,2.12Z"/>
      <path class="cls-4" d="M343.62,166.42l2.61-63.05c.09-2.15-1.35-4.06-3.43-4.58l-15.59-3.85c-2.7-.67-5.36,1.24-5.59,4.02l-7.58,91.86c-.22,2.61,1.82,4.85,4.44,4.89l96.79,1.39c2.7.04,4.83-2.28,4.56-4.97l-1.36-13.68c-.22-2.23-2.04-3.96-4.28-4.07l-66.28-3.27c-2.48-.12-4.4-2.22-4.29-4.7Z"/>
    </g>
    <g>
      <path class="cls-3" d="M443.77,160.74l30.13,3.09c3.72.38,6.66-3.1,5.65-6.71l-9.22-33c-.52-1.85-1.99-3.27-3.85-3.73l-25.58-6.28c-3.62-.89-7.01,2.14-6.53,5.83l4.67,36.18c.32,2.44,2.27,4.35,4.72,4.6Z"/>
      <path class="cls-2" d="M410.13,57.56l-39.11-15.74c-2.97-1.2-6.21.99-6.21,4.2v29.82c0,2.02,1.34,3.8,3.29,4.35l41.95,11.92c3.09.88,6.08-1.65,5.73-4.84l-2.84-26c-.18-1.66-1.26-3.08-2.81-3.71Z"/>
      <path class="cls-3" d="M451.22,181.41l2.72,13.03c.4,1.89,2.05,3.26,3.99,3.29l45.3.65c2.76.04,4.79-2.59,4.04-5.25l-16.62-59.3c-.4-1.44-1.56-2.56-3.02-2.9l-.47-.11c-3.05-.73-5.77,2.06-4.95,5.09l9.9,36.93c.73,2.71-1.4,5.34-4.2,5.2l-32.44-1.6c-2.7-.13-4.8,2.32-4.25,4.97Z"/>
      <path class="cls-3" d="M329.44,7.29l-4.03,50.51c-.15,1.92,1.11,3.68,2.98,4.14l14.31,3.55c2.39.59,4.73-1.12,4.89-3.57l2.14-33.35c.17-2.71,2.98-4.44,5.48-3.38l41.9,17.81c2.52,1.07,5.33-.68,5.48-3.41l.15-2.69c.09-1.64-.84-3.16-2.34-3.82L334.98,4c-2.49-1.1-5.32.58-5.53,3.29Z"/>
    </g>
  </g>
  <g id="Pre_Letters" data-name="Pre Letters">
    <text class="cls-1" transform="translate(6.6 179.55) scale(.84 1)"><tspan x="0" y="0">AW</tspan></text>
  </g>
</svg>